<svg width="136" height="120" viewBox="0 0 136 120" fill="none" xmlns="http://www.w3.org/2000/svg">
<path d="M68 0C105.555 0 136 26.7273 136 59.6973C136 92.6672 105.555 119.396 68 119.396L67.1211 119.391C29.9709 118.978 0.000249723 92.4096 0 59.6973C0.000251272 26.7273 30.4448 0 68 0ZM68 97.5107C62.0094 97.5107 56.5745 98.1806 51.7817 99.4045C47.0466 100.614 47.2334 106.338 51.9809 107.498C57.0254 108.73 62.3907 109.396 68 109.396C73.3043 109.396 78.3906 108.8 83.1936 107.694C87.965 106.595 88.2383 100.821 83.5182 99.5189C78.8714 98.2373 73.6667 97.5107 68 97.5107ZM92.7669 85.378C91.4578 88.5474 93.0882 92.1348 96.1638 93.651C97.6878 94.4023 99.1496 95.2159 100.544 96.0884C102.75 97.4687 105.603 97.6008 107.627 95.9647C119.078 86.7045 126 73.5978 126 59.6973C126 52.5233 124.156 45.5605 120.798 39.2287C118.677 35.2304 113.164 35.9944 111.436 40.1775L92.7669 85.378ZM25.5975 38.5788C23.9863 34.3908 18.5534 33.4555 16.271 37.3189C12.2367 44.148 10.0001 51.7947 10 59.6973C10.0001 73.3403 16.667 86.2193 27.7411 95.447C29.7649 97.1333 32.6591 97.0131 34.9062 95.6384C36.4462 94.6963 38.069 93.8355 39.7663 93.0564C42.896 91.6197 44.6348 88.0632 43.3983 84.8492L25.5975 38.5788ZM73 83.5196C73 85.8609 74.8603 87.7899 77.1824 88.0882C79.2637 88.3556 81.2656 87.2474 82.0667 85.308L105.917 27.5685C106.931 25.113 106.227 22.2557 104.036 20.7539C97.0531 15.9692 88.6965 12.5151 79.3986 10.945C75.9642 10.365 73 13.142 73 16.625V83.5196ZM63 16.625C63 13.142 60.0354 10.3651 56.601 10.945C48.0463 12.3895 40.2882 15.4286 33.6641 19.6318C31.4002 21.0683 30.6026 23.9331 31.5653 26.4354L54.167 85.1829C54.9034 87.0969 56.8359 88.2284 58.8741 88.0027C61.1622 87.7493 63 85.8572 63 83.5552V16.625Z" fill="#0000FF"/>
</svg>
