<svg width="344" height="302" viewBox="0 0 344 302" fill="none" xmlns="http://www.w3.org/2000/svg">
<path d="M172 0C266.993 0 344 67.605 344 151C344 234.395 266.993 302 172 302C77.007 302 0 234.395 0 151C0 67.605 77.007 0 172 0ZM172 239C138.454 239 108.839 248.648 89.0008 263.428C85.7382 265.859 86.2485 270.726 89.8675 272.585C113.825 284.892 141.837 292 172 292C202.163 292 230.174 284.892 254.131 272.585C257.75 270.726 258.261 265.859 254.998 263.428C235.16 248.649 205.546 239 172 239ZM22.6788 125.529C20.2438 120.779 13.4866 121.404 12.4318 126.637C10.8324 134.57 10 142.713 10 151C10 194.708 33.1516 234.393 69.8613 260.445C72.1607 262.077 75.2742 261.769 77.404 259.921C79.2564 258.314 81.1983 256.758 83.2245 255.255C85.6749 253.438 86.5545 250.128 85.1628 247.413L22.6788 125.529ZM258.907 247.482C257.524 250.193 258.403 253.495 260.846 255.31C262.847 256.795 264.765 258.333 266.595 259.921C268.725 261.769 271.838 262.077 274.138 260.445C310.848 234.393 334 194.708 334 151C334 142.608 333.146 134.364 331.506 126.337C330.438 121.108 323.681 120.498 321.256 125.252L258.907 247.482ZM219.262 229.184C218.372 232.385 220.257 235.687 223.425 236.689C230.094 238.801 236.431 241.314 242.358 244.188C245.401 245.664 249.118 244.528 250.654 241.515L321.629 102.376C322.455 100.757 322.51 98.8474 321.729 97.206C312.141 77.0447 297.32 59.1408 278.655 44.8809C275.387 42.3838 270.715 44.0841 269.613 48.047L219.262 229.184ZM74.4893 47.968C73.3883 44.007 68.72 42.3059 65.4511 44.799C46.6519 59.1366 31.7442 77.1684 22.142 97.4796C21.3654 99.1223 21.4245 101.031 22.2534 102.648L93.4294 241.489C94.9692 244.492 98.6775 245.623 101.715 244.152C107.654 241.277 114.003 238.764 120.686 236.654C123.856 235.654 125.743 232.35 124.853 229.147L74.4893 47.968ZM177 223.232C177 226.482 179.589 229.13 182.833 229.323C189.521 229.722 196.063 230.486 202.408 231.588C205.522 232.129 208.585 230.274 209.432 227.229L261.819 38.7664C262.545 36.1561 261.437 33.3738 259.07 32.0558C236.969 19.75 211.128 11.9716 183.154 10.3284C179.784 10.1305 177 12.8512 177 16.2264V223.232ZM167 16.2264C167 12.8512 164.216 10.1305 160.846 10.3284C132.919 11.9689 107.118 19.7244 85.0409 31.9945C82.6714 33.3115 81.5619 36.0955 82.288 38.7074L134.687 227.207C135.533 230.251 138.593 232.106 141.706 231.568C148.016 230.476 154.519 229.719 161.167 229.323C164.411 229.13 167 226.482 167 223.232V16.2264Z" fill="#0000FF"/>
</svg>
